<?xml version="1.0" standalone="no"?>
<!DOCTYPE svg PUBLIC "-//W3C//DTD SVG 20010904//EN"
 "http://www.w3.org/TR/2001/REC-SVG-20010904/DTD/svg10.dtd">
<svg version="1.0" xmlns="http://www.w3.org/2000/svg"
 width="72.000000pt" height="72.000000pt" viewBox="0 0 72.000000 72.000000"
 preserveAspectRatio="xMidYMid meet">

<g transform="translate(0.000000,72.000000) scale(0.100000,-0.100000)"
fill="#000000" stroke="none">
<path d="M67 693 c-2 -4 -7 -20 -11 -35 -5 -21 -12 -28 -31 -28 -24 0 -25 -3
-25 -54 0 -52 1 -55 27 -58 21 -2 29 -10 35 -35 7 -26 14 -33 33 -33 17 0 25
-6 25 -18 0 -23 19 -42 42 -42 13 0 18 -8 18 -25 0 -20 5 -25 25 -25 20 0 25
5 25 24 0 13 -7 29 -15 36 -8 7 -15 21 -15 31 0 15 -7 19 -35 19 -34 0 -35 1
-35 36 l0 37 38 -7 c20 -3 58 -6 85 -6 45 0 48 -2 54 -30 5 -28 8 -30 53 -30
46 0 48 1 54 33 l6 32 85 1 85 1 0 -33 c0 -32 -2 -34 -35 -34 -28 0 -35 -4
-35 -19 0 -10 -7 -24 -15 -31 -8 -7 -15 -23 -15 -36 0 -19 5 -24 25 -24 20 0
25 5 25 25 0 17 5 25 18 25 23 0 42 19 42 42 0 12 8 18 25 18 19 0 26 7 33 33
6 25 14 33 35 35 26 3 27 6 27 58 0 51 -1 54 -25 54 -19 0 -26 7 -33 33 l-8
32 -84 0 -84 0 -10 -32 c-6 -22 -15 -33 -27 -33 -12 0 -21 11 -27 33 -8 31
-10 32 -62 32 -52 0 -54 -1 -62 -32 -6 -22 -15 -33 -27 -33 -12 0 -21 11 -27
33 l-10 32 -81 3 c-45 1 -83 -1 -86 -5z m113 -86 c0 -16 -9 -28 -25 -35 -15
-7 -25 -20 -25 -32 0 -16 -7 -20 -30 -20 -30 0 -30 1 -30 55 l0 55 55 0 c51 0
55 -2 55 -23z m230 -37 l0 -60 -50 0 -50 0 0 60 0 60 50 0 50 0 0 -60z m240 5
c0 -54 0 -55 -30 -55 -23 0 -30 4 -30 20 0 12 -10 25 -25 32 -16 7 -25 19 -25
35 0 21 4 23 55 23 l55 0 0 -55z"/>
<path d="M241 333 c1 -5 1 -20 0 -35 -1 -24 -5 -28 -31 -28 -28 0 -30 -3 -30
-35 0 -32 -3 -35 -29 -35 -24 0 -30 -5 -34 -29 -4 -21 -13 -30 -29 -33 -21 -3
-23 -8 -23 -58 l0 -55 84 0 85 0 8 33 c7 25 14 32 33 32 20 0 25 5 25 25 0 24
3 25 60 25 57 0 60 -1 60 -25 0 -20 5 -25 25 -25 19 0 26 -7 33 -32 l8 -33 85
0 84 0 0 55 c0 50 -2 55 -23 58 -16 3 -25 12 -29 33 -4 24 -10 29 -34 29 -26
0 -29 3 -29 35 0 32 -2 35 -30 35 -23 0 -30 5 -30 19 0 50 -30 68 -56 34 -24
-31 -17 -53 15 -53 26 0 30 -4 33 -32 3 -29 7 -33 36 -36 28 -3 32 -7 32 -33
0 -24 4 -29 25 -29 20 0 25 -5 25 -25 0 -23 -4 -25 -45 -25 -37 0 -45 3 -45
18 0 23 -30 52 -53 52 -11 0 -17 8 -17 21 0 29 -28 48 -70 48 -42 0 -70 -19
-70 -48 0 -14 -6 -21 -18 -21 -23 0 -52 -30 -52 -53 0 -13 -10 -17 -45 -17
-41 0 -45 2 -45 25 0 20 5 25 25 25 21 0 25 5 25 29 0 26 4 30 33 33 28 3 32
7 35 36 3 28 7 32 33 32 32 0 39 22 15 53 -13 16 -57 25 -55 10z"/>
</g>
</svg>
